<svg width="80" height="80" viewBox="0 0 80 80" fill="none" xmlns="http://www.w3.org/2000/svg">
<circle cx="40" cy="39.9999" r="40" fill="#9D94FF"/>
<path d="M25.4763 46.9999V32.9999H31.4763C31.863 32.9999 32.1963 33.1399 32.4763 33.4199C32.7563 33.6999 32.8963 34.0399 32.8963 34.4399V45.5599C32.8963 45.9599 32.7563 46.2999 32.4763 46.5799C32.1963 46.8599 31.863 46.9999 31.4763 46.9999H25.4763ZM27.3363 45.1399H30.3363C30.523 45.1399 30.6897 45.0733 30.8363 44.9399C30.983 44.7933 31.0563 44.6199 31.0563 44.4199V35.5799C31.0563 35.3799 30.983 35.2133 30.8363 35.0799C30.6897 34.9333 30.523 34.8599 30.3363 34.8599H27.3363V45.1399ZM33.3426 46.9999V32.9999H39.3426C39.7292 32.9999 40.0626 33.1399 40.3426 33.4199C40.6226 33.6999 40.7626 34.0399 40.7626 34.4399V38.7399C40.7626 39.1399 40.6226 39.4799 40.3426 39.7599C40.0626 40.0399 39.7292 40.1799 39.3426 40.1799H38.9226L40.7626 46.9999H38.9226L37.0626 40.1799H35.2026V46.9999H33.3426ZM35.2026 38.3199H38.2026C38.3892 38.3199 38.5559 38.2533 38.7026 38.1199C38.8492 37.9733 38.9226 37.7999 38.9226 37.5999V35.5799C38.9226 35.3799 38.8492 35.2133 38.7026 35.0799C38.5559 34.9333 38.3892 34.8599 38.2026 34.8599H35.2026V38.3199ZM40.8013 47.0199L43.6213 33.0199H45.4413L48.2213 47.0199H46.3613L45.8213 44.3999H43.1613L42.6613 47.0199H40.8013ZM43.5213 42.5599H45.5013L44.5413 37.5799L43.5213 42.5599ZM49.5413 46.9999C49.1413 46.9999 48.8013 46.8599 48.5213 46.5799C48.2413 46.2999 48.1013 45.9599 48.1013 45.5599V34.4199C48.1013 34.0333 48.2413 33.6999 48.5213 33.4199C48.8013 33.1399 49.1413 32.9999 49.5413 32.9999H54.0813C54.4813 32.9999 54.8213 33.1399 55.1013 33.4199C55.3813 33.6999 55.5213 34.0333 55.5213 34.4199V37.5399L53.6613 37.1199V35.5599C53.6613 35.3599 53.588 35.1933 53.4413 35.0599C53.308 34.9133 53.1413 34.8399 52.9413 34.8399H50.6813C50.4813 34.8399 50.308 34.9133 50.1613 35.0599C50.028 35.1933 49.9613 35.3599 49.9613 35.5599V44.4199C49.9613 44.6199 50.028 44.7933 50.1613 44.9399C50.308 45.0733 50.4813 45.1399 50.6813 45.1399H52.9413C53.1413 45.1399 53.308 45.0733 53.4413 44.9399C53.588 44.7933 53.6613 44.6199 53.6613 44.4199V42.4799H51.8213L52.2413 40.6199H55.5213V45.5599C55.5213 45.9599 55.3813 46.2999 55.1013 46.5799C54.8213 46.8599 54.4813 46.9999 54.0813 46.9999H49.5413Z" fill="white"/>
</svg>
