<svg width="80" height="80" viewBox="0 0 80 80" fill="none" xmlns="http://www.w3.org/2000/svg">
<circle cx="40" cy="40" r="40" fill="#9D94FF"/>
<path d="M51.375 26.8125H29.6193C28.6225 26.8125 27.8125 27.6338 27.8125 28.642V50.358C27.8125 51.3662 28.6225 52.1875 29.6193 52.1875H51.375C52.3719 52.1875 53.1875 51.3662 53.1875 50.358V28.642C53.1875 27.6338 52.3719 26.8125 51.375 26.8125ZM35.4816 48.5625H31.7207V36.4527H35.4873V48.5625H35.4816ZM33.6012 34.7988C32.3947 34.7988 31.4205 33.8189 31.4205 32.6182C31.4205 31.4174 32.3947 30.4375 33.6012 30.4375C34.802 30.4375 35.7818 31.4174 35.7818 32.6182C35.7818 33.8246 34.8076 34.7988 33.6012 34.7988ZM49.5795 48.5625H45.8186V42.6719C45.8186 41.2672 45.7902 39.4604 43.8645 39.4604C41.9047 39.4604 41.6045 40.9896 41.6045 42.5699V48.5625H37.8436V36.4527H41.4516V38.1066H41.5025C42.0066 37.1551 43.2357 36.1525 45.0652 36.1525C48.8715 36.1525 49.5795 38.6617 49.5795 41.9242V48.5625Z" fill="white"/>
</svg>
