<svg width="80" height="80" viewBox="0 0 80 80" fill="none" xmlns="http://www.w3.org/2000/svg">
<circle cx="40" cy="40" r="40" fill="#9D94FF"/>
<path d="M23.7313 40V26H29.7313C30.1179 26 30.4513 26.14 30.7313 26.42C31.0113 26.7 31.1513 27.04 31.1513 27.44V31.74C31.1513 32.14 31.0113 32.48 30.7313 32.76C30.4513 33.04 30.1179 33.18 29.7313 33.18H29.3113L31.1513 40H29.3113L27.4513 33.18H25.5913V40H23.7313ZM25.5913 31.32H28.5913C28.7779 31.32 28.9446 31.2533 29.0913 31.12C29.2379 30.9733 29.3113 30.8 29.3113 30.6V28.58C29.3113 28.38 29.2379 28.2133 29.0913 28.08C28.9446 27.9333 28.7779 27.86 28.5913 27.86H25.5913V31.32ZM31.5994 40V26H39.0394V27.84H33.4594V31.32H37.1794L36.7594 33.18H33.4594V38.14H39.0394V40H31.5994ZM39.1158 40.02L41.9358 26.02H43.7558L46.5358 40.02H44.6758L44.1358 37.4H41.4758L40.9758 40.02H39.1158ZM41.8358 35.56H43.8158L42.8558 30.58L41.8358 35.56ZM46.8064 40V26H52.8064C53.1931 26 53.5264 26.14 53.8064 26.42C54.0864 26.7 54.2264 27.04 54.2264 27.44V38.56C54.2264 38.96 54.0864 39.3 53.8064 39.58C53.5264 39.86 53.1931 40 52.8064 40H46.8064ZM48.6664 38.14H51.6664C51.8531 38.14 52.0197 38.0733 52.1664 37.94C52.3131 37.7933 52.3864 37.62 52.3864 37.42V28.58C52.3864 28.38 52.3131 28.2133 52.1664 28.08C52.0197 27.9333 51.8531 27.86 51.6664 27.86H48.6664V38.14ZM26.2408 55V42.86H23.4608V41H30.8808V42.86H28.1008V55H26.2408ZM30.4947 55.02L33.3147 41.02H35.1347L37.9147 55.02H36.0547L35.5147 52.4H32.8547L32.3547 55.02H30.4947ZM33.2147 50.56H35.1947L34.2347 45.58L33.2147 50.56ZM39.1853 55V41H41.0453V53.14H45.8253V55H39.1853ZM47.0369 55V41H48.8969V50.34L52.5969 41H54.4569L51.6769 48L54.4569 55H52.5969L50.7569 50.34L48.8969 55H47.0369Z" fill="white"/>
</svg>
