<svg width="80" height="80" viewBox="0 0 80 80" fill="none" xmlns="http://www.w3.org/2000/svg">
<circle cx="40" cy="40" r="40" fill="#09006C"/>
<path d="M17.7 37L12.48 22.4H14.04L18.88 36.06L18.06 35.62H20.18L19.3 36.06L23.8 22.4H25.34L20.44 37H17.7ZM28.3044 37V22.4H29.8244V37H28.3044ZM34.4167 37V22.4H35.9367V37H34.4167ZM35.5767 37V35.62H42.8767V37H35.5767ZM35.5767 30.26V28.9H42.1967V30.26H35.5767ZM35.5767 23.78V22.4H42.6567V23.78H35.5767ZM48.8875 37L44.8475 22.4H46.4075L50.0675 36.02L49.3675 35.62H51.3075L50.5475 36.02L53.5275 23.04H54.9675L51.6875 37H48.8875ZM57.6675 37L54.0675 23.04H55.5475L58.8675 36.02L58.1275 35.62H60.1075L59.3475 36.02L62.6475 22.4H64.1675L60.4675 37H57.6675ZM17.12 57V43.4H18.64V57H17.12ZM12.56 43.78V42.4H23.2V43.78H12.56ZM23.3631 57L28.7431 42.4H31.4631L37.0231 57H35.4631L30.2831 43.36L31.1031 43.78H29.0031L29.8631 43.36L24.8831 57H23.3631ZM26.2431 52.36L26.7431 50.98H33.5231L34.0431 52.36H26.2431ZM39.9636 57V42.4H41.4836V57H39.9636ZM41.0836 57V55.62H47.9436V57H41.0836ZM59.9248 57L53.5648 50.1H51.6848L58.5448 42.4H60.3048L53.9848 49.46L53.8448 48.36L61.8248 57H59.9248ZM50.7448 57V42.4H52.2648V57H50.7448Z" fill="white"/>
</svg>
